<?xml version="1.0" encoding="UTF-8"?>
<!DOCTYPE svg PUBLIC "-//W3C//DTD SVG 1.1//EN" "http://www.w3.org/Graphics/SVG/1.1/DTD/svg11.dtd">
<svg version="1.1" xmlns="http://www.w3.org/2000/svg" xmlns:xlink="http://www.w3.org/1999/xlink" x="0" y="0" width="420" height="420" viewBox="0, 0, 420, 420">
  <g id="Background">
    <rect x="0" y="0" width="420" height="420" fill="#000000" fill-opacity="0"/>
  </g>
  <g id="Layer_1">
    <path d="M17.003,377.141 L113.501,210 L210,42.859 L306.499,210 L402.997,377.141 L210,377.141 z" fill="#830E00"/>
    <path d="M170.922,275.973 C158.153,275.973 147.802,259.559 147.802,239.311 C147.802,219.062 158.153,202.648 170.922,202.648 C183.691,202.648 194.042,219.062 194.042,239.311 C194.042,259.559 183.691,275.973 170.922,275.973 z" fill="#FFFFFF"/>
    <path d="M170.922,235.521 C181.268,235.78 188.884,241.618 192.845,251.302 C190.235,263.088 183.992,276.215 170.922,277.295 C157.283,276.321 152.048,263.123 148.999,251.302 C152.506,241.539 161.082,236.035 170.922,235.521 z" fill="#000000"/>
    <path d="M249.078,275.312 C236.309,275.312 225.958,258.898 225.958,238.65 C225.958,218.402 236.309,201.987 249.078,201.987 C261.847,201.987 272.198,218.402 272.198,238.65 C272.198,258.898 261.847,275.312 249.078,275.312 z" fill="#FFFFFF"/>
    <path d="M249.078,234.861 C259.424,235.119 267.04,240.957 271.001,250.641 C268.391,262.427 262.148,275.554 249.078,276.634 C235.439,275.66 230.204,262.462 227.155,250.641 C230.662,240.878 239.238,235.374 249.078,234.861 z" fill="#000000"/>
    <path d="M162.5,328.328 C162.5,328.328 186.27,320.149 209.997,319.338 C232.991,318.552 258.5,328.328 258.5,328.328" fill-opacity="0" stroke="#000000" stroke-width="8" stroke-linecap="round" stroke-linejoin="round"/>
  </g>
</svg>
